<?xml version="1.0" encoding="UTF-8"?>
<svg width="43px" height="45px" viewBox="0 0 43 45" version="1.1" xmlns="http://www.w3.org/2000/svg" xmlns:xlink="http://www.w3.org/1999/xlink">
    <title>Group 47</title>
    <g id="Final" stroke="none" stroke-width="1" fill="none" fill-rule="evenodd">
        <g id="Group-35" transform="translate(-229.000000, -3.000000)">
            <g id="Group-37" transform="translate(0.000000, 3.000000)">
                <g id="Group-47" transform="translate(229.000000, 0.000000)">
                    <rect id="Rectangle-Copy-55" fill="#FFFFFF" x="0" y="0" width="43" height="45"></rect>
                    <g id="noun_world-wide-delivery_4140406" transform="translate(3.000000, 3.000000)" fill="#3B1159" fill-rule="nonzero">
                        <path d="M38,18.0485039 C38,18.0425197 38,18.0425197 38,18.0365354 C37.9939959,13.799685 36.5049771,9.70047244 33.7971243,6.48692913 C30.3387581,2.36377953 25.2712909,0 19.89161,0 C14.5119292,0 9.45046611,2.36377953 5.99810397,6.48094488 C4.6832043,8.03086614 3.65049771,9.79622047 2.93000474,11.7291339 C2.17949123,13.7577953 1.79522831,15.8822047 1.79522831,18.0485039 C1.79522831,18.8264567 1.8612735,19.616378 1.96334334,20.4062992 C0.864591563,20.5080315 0,21.4176378 0,22.5366929 L0,35.8456693 C0,37.0305512 0.9666614,38 2.16147891,38 L16.109022,38 C17.2437984,38 18.168431,37.120315 18.2524885,36.0072441 C18.7628377,36.0551181 19.2491705,36.0850394 19.7174909,36.0910236 C19.777532,36.0910236 19.8375731,36.1029921 19.8976142,36.1029921 C20.0657292,36.1029921 20.2338442,36.0970079 20.4019592,36.0790551 C22.1551588,36.0311811 23.8843419,35.743937 25.5414757,35.1933858 C28.6455996,34.1820472 31.4194976,32.3448819 33.5689682,29.8733858 C36.000632,27.1026772 37.4956549,23.6916535 37.8919261,20.0173228 C37.9639754,19.4009449 38,18.7606299 38,18.0604724 C37.9939959,18.0544882 38,18.0544882 38,18.0485039 Z M37.0753674,17.599685 L29.6302733,17.599685 C29.5882446,14.6434646 29.167957,11.8667717 28.4474641,9.42519685 C30.2727129,8.90456693 31.9238426,8.2103937 33.334808,7.37259843 C35.6583979,10.2570079 36.9732975,13.8595276 37.0753674,17.599685 Z M2.86395955,20.3883465 C2.77389793,19.7540157 2.72586507,19.119685 2.70785274,18.4973228 L10.1589509,18.4973228 C10.164955,19.1256693 10.1949755,19.76 10.2370043,20.3883465 L5.96808343,20.3883465 L2.86395955,20.3883465 L2.86395955,20.3883465 Z M20.3419182,0.921574803 C23.2719229,1.2088189 25.8296729,4.27874016 27.3307,8.79086614 C25.1752252,9.32944882 22.7975984,9.62866142 20.3419182,9.65858268 L20.3419182,0.921574803 Z M19.4413019,9.66456693 C16.9856217,9.63464567 14.6139991,9.33543307 12.4525201,8.79685039 C13.9535472,4.28472441 16.5112972,1.21480315 19.4413019,0.927559055 L19.4413019,9.66456693 Z M19.4413019,10.5622047 L19.4413019,17.599685 L11.053563,17.599685 C11.0955917,14.7212598 11.497867,12.016378 12.1883394,9.65259843 C14.4338758,10.2151181 16.9015642,10.5322835 19.4413019,10.5622047 Z M6.41839153,21.2859843 L11.8461052,21.2859843 L11.8461052,24.1105512 L11.4798546,23.8831496 C11.335756,23.7933858 11.1496287,23.7933858 11.0055301,23.8831496 L10.1889714,24.3858268 L9.3724127,23.8831496 C9.22831411,23.7933858 9.04218676,23.7933858 8.89808817,23.8831496 L8.08152947,24.3858268 L7.25896666,23.8831496 C7.18691736,23.8412598 7.10285985,23.8173228 7.02480645,23.8173228 C6.94675304,23.8173228 6.86269553,23.8412598 6.79064623,23.8831496 L6.41839153,24.1105512 L6.41839153,21.2859843 Z M12.2964133,20.3883465 L11.1436246,20.3883465 C11.1015958,19.7540157 11.0715753,19.1256693 11.0655712,18.4973228 L19.4533102,18.4973228 L19.4533102,25.9477165 C19.0630431,25.9537008 18.6727761,25.9656693 18.2705009,25.983622 L18.2705009,22.5426772 C18.2705009,21.3577953 17.3038395,20.3883465 16.109022,20.3883465 L12.2964133,20.3883465 Z M18.2644968,26.8812598 C18.666772,26.8633071 19.057039,26.8513386 19.4473061,26.8453543 L19.4473061,35.1814173 C19.0510349,35.1395276 18.6607679,35.0437795 18.2644968,34.8941732 L18.2644968,26.8812598 Z M20.3419182,26.8453543 C22.7435614,26.8812598 25.0731553,27.1685039 27.2046137,27.6891339 C25.6915784,31.9977953 23.1938695,34.9061417 20.3419182,35.1814173 L20.3419182,26.8453543 Z M20.3419182,25.9477165 L20.3419182,18.4973228 L28.7296571,18.4973228 C28.6876284,21.5373228 28.2433244,24.3798425 27.4868068,26.8333858 C25.2652868,26.2828346 22.8396271,25.9776378 20.3419182,25.9477165 Z M20.3419182,17.599685 L20.3419182,10.5622047 C22.88766,10.5262992 25.3553484,10.2151181 27.5948807,9.65259843 C28.279349,12.016378 28.6876284,14.7212598 28.7296571,17.599685 L20.3419182,17.599685 L20.3419182,17.599685 Z M32.7524095,6.66645669 C31.4315058,7.4384252 29.8824459,8.07874016 28.1772792,8.56346457 C27.0785274,5.29007874 25.4334018,2.71086614 23.4760626,1.27464567 C27.0425028,2.03464567 30.2907252,3.90173228 32.7524095,6.66645669 Z M16.3071575,1.27464567 C14.3498183,2.71685039 12.7046927,5.29007874 11.6059409,8.56944882 C9.90077421,8.08472441 8.35771844,7.44440945 7.03081055,6.66645669 C9.49849897,3.90173228 12.7467214,2.02866142 16.3071575,1.27464567 Z M3.77057987,12.0462992 C4.41301943,10.3348031 5.31963975,8.76692913 6.44841207,7.36661417 C7.85937747,8.2103937 9.5165113,8.90456693 11.335756,9.42519685 C10.6152631,11.8667717 10.1949755,14.6434646 10.1529468,17.599685 L2.70785274,17.599685 C2.76188971,15.6966929 3.10412387,13.8296063 3.77057987,12.0462992 Z M17.3638805,35.8456693 C17.3638805,36.5398425 16.7994944,37.1023622 16.1030179,37.1023622 L2.1554748,37.1023622 C1.45899826,37.1023622 0.894612103,36.5398425 0.894612103,35.8456693 L0.894612103,22.5426772 C0.894612103,21.8485039 1.45899826,21.2859843 2.1554748,21.2859843 L5.51777532,21.2859843 L5.51777532,24.9184252 C5.51777532,25.08 5.60783694,25.2296063 5.74593143,25.3074016 C5.81197662,25.3433071 5.89003002,25.3672441 5.96808343,25.3672441 C6.05214094,25.3672441 6.13019434,25.3433071 6.20224364,25.3014173 L7.02480645,24.7987402 L7.84736925,25.3014173 C7.99146785,25.3911811 8.1775952,25.3911811 8.32169379,25.3014173 L9.13825249,24.7987402 L9.95481119,25.3014173 C10.0989098,25.3911811 10.2850371,25.3911811 10.4291357,25.3014173 L11.2456944,24.7987402 L12.0622531,25.3014173 C12.2003476,25.3851969 12.3744667,25.3911811 12.5185653,25.3133858 C12.6626639,25.2355906 12.7467214,25.0859843 12.7467214,24.9184252 L12.7467214,21.2859843 L16.109022,21.2859843 C16.8054985,21.2859843 17.3698847,21.8485039 17.3698847,22.5426772 L17.3698847,35.8456693 L17.3638805,35.8456693 Z M25.2532786,34.3376378 C24.6828883,34.5231496 24.1004898,34.6727559 23.5180913,34.7984252 C25.3853689,33.4100787 26.9644494,30.9804724 28.0511929,27.9045669 C29.6963185,28.3653543 31.2033497,28.9637795 32.500237,29.687874 C30.5188813,31.8302362 28.0271765,33.44 25.2532786,34.3376378 Z M33.112656,28.999685 C31.719703,28.2097638 30.1045979,27.5514961 28.3393901,27.0548031 C29.1319324,24.5234646 29.5942487,21.6091339 29.6362775,18.4973228 L37.0873756,18.4973228 C37.0753674,18.9940157 37.0513509,19.4667717 36.997314,19.9155906 C36.6250593,23.2907087 35.280139,26.4204724 33.112656,28.999685 Z" id="Shape" stroke="#3B1159" stroke-width="0.4"></path>
                        <path d="M15.4305578,32.7577953 L10.1769632,32.7577953 C9.70864276,32.7577953 9.33038395,33.1348031 9.33038395,33.6015748 L9.33038395,35.1275591 C9.33038395,35.5943307 9.70864276,35.9713386 10.1769632,35.9713386 L15.4305578,35.9713386 C15.8988782,35.9713386 16.277137,35.5943307 16.277137,35.1275591 L16.277137,33.6015748 C16.277137,33.1348031 15.8988782,32.7577953 15.4305578,32.7577953 Z M15.3765208,35.0737008 L10.2310002,35.0737008 L10.2310002,33.6554331 L15.3765208,33.6554331 L15.3765208,35.0737008 Z" id="Shape"></path>
                    </g>
                </g>
            </g>
        </g>
    </g>
</svg>