<?xml version="1.0" encoding="UTF-8"?>
<svg width="43px" height="45px" viewBox="0 0 43 45" version="1.1" xmlns="http://www.w3.org/2000/svg" xmlns:xlink="http://www.w3.org/1999/xlink">
    <title>Group 44</title>
    <g id="Final" stroke="none" stroke-width="1" fill="none" fill-rule="evenodd">
        <g id="Group-35" transform="translate(-467.000000, 0.000000)">
            <g id="Group-44" transform="translate(467.000000, 0.000000)">
                <rect id="Rectangle-Copy-53" fill="#FFFFFF" x="0" y="0" width="43" height="45"></rect>
                <g id="008-technology" transform="translate(3.000000, 3.000000)" fill="#3B1159">
                    <path d="M16.4664688,12.0335313 C15.4188958,12.0335313 14.5665677,12.8858594 14.5665677,13.9334323 L15.8333333,13.9334323 C15.8333333,13.5843073 16.1170469,13.2998021 16.4664688,13.2998021 C16.8163854,13.2998021 17.100099,13.5843073 17.100099,13.9334323 L18.3668646,13.9334323 C18.3668646,12.8858594 17.5140417,12.0335313 16.4664688,12.0335313 Z" id="Fill-1"></path>
                    <path d="M21.5335313,12.0335313 C20.4859583,12.0335313 19.6331354,12.8858594 19.6331354,13.9334323 L20.899901,13.9334323 C20.899901,13.5843073 21.1836146,13.2998021 21.5335313,13.2998021 C21.8829531,13.2998021 22.1666667,13.5843073 22.1666667,13.9334323 L23.4334323,13.9334323 C23.4334323,12.8858594 22.5811042,12.0335313 21.5335313,12.0335313 Z" id="Fill-2"></path>
                    <g id="Group-6">
                        <path d="M19,29.1331354 C17.6030052,29.1331354 16.4664688,30.2696719 16.4664688,31.6666667 C16.4664688,33.0636615 17.6030052,34.2001979 19,34.2001979 C20.3969948,34.2001979 21.5335313,33.0636615 21.5335313,31.6666667 C21.5335313,30.2696719 20.3969948,29.1331354 19,29.1331354 Z M19,32.9334323 C18.3014531,32.9334323 17.7332344,32.3652135 17.7332344,31.6666667 C17.7332344,30.9681198 18.3014531,30.399901 19,30.399901 C19.6985469,30.399901 20.2667656,30.9681198 20.2667656,31.6666667 C20.2667656,32.3652135 19.6985469,32.9334323 19,32.9334323 Z" id="Fill-3"></path>
                        <path d="M34.2001979,36.7332344 L34.2001979,28.5 C34.2001979,23.2617396 29.9383594,19 24.7001979,19 L24.0101615,19 C24.2358854,18.8016875 24.448151,18.5902135 24.6487396,18.3668646 L25.3333333,18.3668646 C27.0794531,18.3668646 28.5,16.9462187 28.5,15.2001979 L28.5,14.0841458 C29.2630677,13.5723333 29.7667656,12.7021927 29.7667656,11.7164687 C29.7667656,10.7272812 29.2592083,9.85605208 28.4922813,9.34503125 C28.4079688,4.17871354 24.1864063,0 19,0 C13.8135938,0 9.59203125,4.17871354 9.50771875,9.34503125 C8.74079167,9.85605208 8.23323438,10.7272812 8.23323438,11.7164687 C8.23323438,13.2878281 9.51197396,14.5665677 11.0833333,14.5665677 L11.5146927,14.5665677 C11.8111719,16.3215938 12.7076354,17.8712812 13.9902344,19 L13.2998021,19 C8.06164063,19 3.79980208,23.2617396 3.79980208,28.5 L3.79980208,36.7332344 L0,36.7332344 L0,38 L38,38 L38,36.7332344 L34.2001979,36.7332344 Z M27.2332344,15.2001979 C27.2332344,16.1607865 26.5139062,16.9485937 25.5872604,17.0741719 C26.0260417,16.3107083 26.334099,15.4653073 26.4853073,14.5665677 L26.9166667,14.5665677 C27.0249271,14.5665677 27.1281406,14.5464792 27.2332344,14.5345052 L27.2332344,15.2001979 Z M28.5,11.7164688 C28.5,12.5893802 27.789875,13.2998021 26.9166667,13.2998021 L26.600099,13.2998021 L26.600099,10.1331354 L26.9166667,10.1331354 C27.789875,10.1331354 28.5,10.8440521 28.5,11.7164688 Z M11.399901,13.2998021 L11.0833333,13.2998021 C10.210125,13.2998021 9.5,12.5893802 9.5,11.7164688 C9.5,10.8440521 10.210125,10.1331354 11.0833333,10.1331354 L11.399901,10.1331354 L11.399901,13.2998021 Z M11.0833333,8.86686458 C10.9851667,8.86686458 10.8927396,8.88576563 10.796849,8.89585938 C11.1088646,4.63788021 14.6644375,1.26676563 19,1.26676563 C23.3355625,1.26676563 26.8911354,4.63788021 27.203151,8.89585938 C27.1072604,8.88576563 27.0148333,8.86686458 26.9166667,8.86686458 L26.4853073,8.86686458 C25.8798802,5.27804167 22.7581406,2.53353125 19,2.53353125 C15.2418594,2.53353125 12.1201198,5.27804167 11.5146927,8.86686458 L11.0833333,8.86686458 Z M25.3325417,10.1173021 C20.7619531,9.95649479 17.7332344,8.08756771 17.7332344,6.33333333 C17.7332344,5.98391146 17.4503125,5.70019792 17.100099,5.70019792 C16.7498854,5.70019792 16.4664687,5.98391146 16.4664687,6.33333333 C16.4664687,7.915875 14.8301927,9.22746875 12.7033802,9.46021875 C13.0408281,6.28345833 15.7359583,3.79980208 19,3.79980208 C22.4863021,3.79980208 25.3236354,6.63288021 25.3325417,10.1173021 Z M12.6666667,13.2998021 L12.6666667,10.7311406 C14.6446458,10.5595469 16.3226823,9.60588542 17.1607604,8.26994792 C18.4859115,10.0256667 21.5822188,11.2611615 25.3333333,11.3871354 L25.3333333,13.2998021 C25.3333333,14.7269792 24.8531875,16.0397604 24.0545938,17.100099 L19,17.100099 L19,18.3668646 L22.7835729,18.3668646 C22.419901,18.639 22.0279271,18.8732344 21.610026,19.0634323 C19.9482188,19.8183854 18.0513854,19.8183854 16.3887865,19.0634323 C14.1974531,18.0664271 12.6666667,15.8611406 12.6666667,13.2998021 Z M17.0425052,20.6350885 C17.6679219,20.802526 18.3223333,20.899901 19,20.899901 C19.6776667,20.899901 20.3320781,20.802526 20.9574948,20.6350885 L19,24.5505729 L17.0425052,20.6350885 Z M17.9752865,25.3333333 L16.8580469,25.3333333 L14.3246146,20.2667656 L15.4417552,20.2667656 L17.9752865,25.3333333 Z M22.5582448,20.2667656 L23.6753854,20.2667656 L21.1419531,25.3333333 L20.0247135,25.3333333 L22.5582448,20.2667656 Z M6.96646875,28.5 L6.96646875,36.7332344 L5.06656771,36.7332344 L5.06656771,28.5 C5.06656771,24.0890312 8.55643229,20.4878385 12.9179219,20.2864583 L15.4417552,25.3333333 L10.1331354,25.3333333 C8.38711458,25.3333333 6.96646875,26.7538802 6.96646875,28.5 Z M29.7667656,36.7332344 L8.23323437,36.7332344 L8.23323437,28.5 C8.23323437,27.4524271 9.0855625,26.600099 10.1331354,26.600099 L27.8668646,26.600099 C28.9144375,26.600099 29.7667656,27.4524271 29.7667656,28.5 L29.7667656,36.7332344 Z M32.9334323,36.7332344 L31.0335312,36.7332344 L31.0335312,28.5 C31.0335312,26.7538802 29.6128854,25.3333333 27.8668646,25.3333333 L22.5582448,25.3333333 L25.0820781,20.2864583 C29.4435677,20.4878385 32.9334323,24.0890312 32.9334323,28.5 L32.9334323,36.7332344 Z" id="Fill-5"></path>
                    </g>
                    <polygon id="Fill-7" stroke="#EBE2F2" stroke-width="0.5" points="27.2332344 35.4665677 28.5 35.4665677 28.5 31.0335313 27.2332344 31.0335313"></polygon>
                    <polygon id="Fill-8" stroke="#EBE2F2" stroke-width="0.5" points="27.2332344 29.7667656 28.5 29.7667656 28.5 28.5 27.2332344 28.5"></polygon>
                    <polygon id="Fill-9" stroke="#EBE2F2" stroke-width="0.5" points="32.9334323 6.96656771 34.2001979 6.96656771 34.2001979 5.70019792 32.9334323 5.70019792"></polygon>
                    <polygon id="Fill-10" stroke="#EBE2F2" stroke-width="0.5" points="32.9334323 9.5 34.2001979 9.5 34.2001979 8.23323438 32.9334323 8.23323438"></polygon>
                    <polygon id="Fill-11" stroke="#EBE2F2" stroke-width="0.5" points="32.9334323 12.0335312 34.2001979 12.0335312 34.2001979 10.7667656 32.9334323 10.7667656"></polygon>
                    <polygon id="Fill-12" stroke="#EBE2F2" stroke-width="0.5" points="3.79980208 14.5665677 5.06656771 14.5665677 5.06656771 13.2998021 3.79980208 13.2998021"></polygon>
                    <polygon id="Fill-13" stroke="#EBE2F2" stroke-width="0.5" points="3.79980208 17.100099 5.06656771 17.100099 5.06656771 15.8333333 3.79980208 15.8333333"></polygon>
                    <polygon id="Fill-14" stroke="#EBE2F2" stroke-width="0.5" points="3.79980208 19.6332344 5.06656771 19.6332344 5.06656771 18.3668646 3.79980208 18.3668646"></polygon>
                </g>
            </g>
        </g>
    </g>
</svg>