<?xml version="1.0" encoding="UTF-8"?>
<svg width="43px" height="45px" viewBox="0 0 43 45" version="1.1" xmlns="http://www.w3.org/2000/svg" xmlns:xlink="http://www.w3.org/1999/xlink">
    <title>Group 33</title>
    <g id="Final" stroke="none" stroke-width="1" fill="none" fill-rule="evenodd">
        <g id="Group-33">
            <rect id="Rectangle-Copy-49" fill="#FFFFFF" x="0" y="0" width="43" height="45"></rect>
            <g id="noun_payment-card_2332408" transform="translate(2.000000, 10.000000)" fill="#3B1159" fill-rule="nonzero">
                <path d="M36.9107143,0 L6.96428571,0 C5.81040508,0 4.875,0.940202025 4.875,2.1 L4.875,4.2 L2.08928571,4.2 C0.935405076,4.2 0,5.14020203 0,6.3 L0,25.9 C0,27.059798 0.935405076,28 2.08928571,28 L32.0357143,28 C33.1895949,28 34.125,27.059798 34.125,25.9 L34.125,23.8 L36.9107143,23.8 C38.0645949,23.8 39,22.859798 39,21.7 L39,2.1 C39,0.940202025 38.0645949,0 36.9107143,0 Z M2.08928571,5.6 L32.0357143,5.6 C32.4203412,5.6 32.7321429,5.91340068 32.7321429,6.3 L32.7321429,8.4 L1.39285714,8.4 L1.39285714,6.3 C1.39285714,5.91340068 1.70465883,5.6 2.08928571,5.6 Z M1.39285714,9.8 L32.7321429,9.8 L32.7321429,12.6 L1.39285714,12.6 L1.39285714,9.8 Z M32.7321429,25.9 C32.7321429,26.2865993 32.4203412,26.6 32.0357143,26.6 L2.08928571,26.6 C1.70465883,26.6 1.39285714,26.2865993 1.39285714,25.9 L1.39285714,14 L32.7321429,14 L32.7321429,25.9 Z M37.6071429,21.7 C37.6071429,22.0865993 37.2953412,22.4 36.9107143,22.4 L34.125,22.4 L34.125,6.3 C34.125,5.14020203 33.1895949,4.2 32.0357143,4.2 L6.26785714,4.2 L6.26785714,2.1 C6.26785714,1.71340068 6.57965883,1.4 6.96428571,1.4 L36.9107143,1.4 C37.2953412,1.4 37.6071429,1.71340068 37.6071429,2.1 L37.6071429,21.7 Z" id="Shape"></path>
                <path d="M27.8571429,18.2 C27.2433655,18.2019753 26.6416257,18.3713265 26.1160714,18.69 C25.5905172,18.3713265 24.9887773,18.2019753 24.375,18.2 C22.4518656,18.2 20.8928571,19.7670034 20.8928571,21.7 C20.8928571,23.6329966 22.4518656,25.2 24.375,25.2 C24.9887773,25.1980247 25.5905172,25.0286735 26.1160714,24.71 C26.6416257,25.0286735 27.2433655,25.1980247 27.8571429,25.2 C29.7802773,25.2 31.3392857,23.6329966 31.3392857,21.7 C31.3392857,19.7670034 29.7802773,18.2 27.8571429,18.2 L27.8571429,18.2 Z M26.1160714,22.855 C25.6568873,22.1541618 25.6568873,21.2458382 26.1160714,20.545 C26.5752556,21.2458382 26.5752556,22.1541618 26.1160714,22.855 L26.1160714,22.855 Z M22.2857143,21.7 C22.2857143,20.540202 23.2211194,19.6 24.375,19.6 C24.5880328,19.602674 24.7994054,19.6380834 25.0017857,19.705 C24.1737075,20.9047811 24.1737075,22.4952189 25.0017857,23.695 C24.7994054,23.7619166 24.5880328,23.797326 24.375,23.8 C23.2211194,23.8 22.2857143,22.859798 22.2857143,21.7 Z M27.8571429,23.8 C27.6441101,23.797326 27.4327374,23.7619166 27.2303571,23.695 C28.0584354,22.4952189 28.0584354,20.9047811 27.2303571,19.705 C27.4327374,19.6380834 27.6441101,19.602674 27.8571429,19.6 C29.0110235,19.6 29.9464286,20.540202 29.9464286,21.7 C29.9464286,22.859798 29.0110235,23.8 27.8571429,23.8 Z" id="Shape"></path>
                <path d="M11.1428571,23.8 L6.26785714,23.8 C5.88323026,23.8 5.57142857,24.1134007 5.57142857,24.5 C5.57142857,24.8865993 5.88323026,25.2 6.26785714,25.2 L11.1428571,25.2 C11.527484,25.2 11.8392857,24.8865993 11.8392857,24.5 C11.8392857,24.1134007 11.527484,23.8 11.1428571,23.8 Z" id="Path"></path>
                <path d="M3.48214286,23.8 L3.48214286,23.8 C3.09751598,23.8 2.78571429,24.1134007 2.78571429,24.5 C2.78571429,24.8865993 3.09751598,25.2 3.48214286,25.2 C3.86676974,25.2 4.17857143,24.8865993 4.17857143,24.5 C4.17857143,24.1134007 3.86676974,23.8 3.48214286,23.8 Z" id="Path"></path>
                <path d="M35.5178571,19.6 L35.5178571,19.6 C35.1332303,19.6 34.8214286,19.9134007 34.8214286,20.3 C34.8214286,20.6865993 35.1332303,21 35.5178571,21 C35.902484,21 36.2142857,20.6865993 36.2142857,20.3 C36.2142857,19.9134007 35.902484,19.6 35.5178571,19.6 Z" id="Path"></path>
                <path d="M35.5178571,17.5 L35.5178571,17.5 C35.1332303,17.5 34.8214286,17.8134007 34.8214286,18.2 C34.8214286,18.5865993 35.1332303,18.9 35.5178571,18.9 C35.902484,18.9 36.2142857,18.5865993 36.2142857,18.2 C36.2142857,17.8134007 35.902484,17.5 35.5178571,17.5 Z" id="Path"></path>
                <path d="M11.1428571,21.7 L3.48214286,21.7 C3.09751598,21.7 2.78571429,22.0134007 2.78571429,22.4 C2.78571429,22.7865993 3.09751598,23.1 3.48214286,23.1 L11.1428571,23.1 C11.527484,23.1 11.8392857,22.7865993 11.8392857,22.4 C11.8392857,22.0134007 11.527484,21.7 11.1428571,21.7 Z" id="Path"></path>
            </g>
        </g>
    </g>
</svg>