<?xml version="1.0" encoding="UTF-8"?>
<svg width="43px" height="45px" viewBox="0 0 43 45" version="1.1" xmlns="http://www.w3.org/2000/svg" xmlns:xlink="http://www.w3.org/1999/xlink">
    <title>Group 37</title>
    <g id="Final" stroke="none" stroke-width="1" fill="none" fill-rule="evenodd">
        <g id="Group-35" transform="translate(0.000000, -3.000000)">
            <g id="Group-37" transform="translate(0.000000, 3.000000)">
                <rect id="Rectangle-Copy-54" fill="#FFFFFF" x="0" y="0" width="43" height="45"></rect>
                <g id="noun_delivery_2221461-(1)" transform="translate(4.000000, 5.000000)" fill="#3B1159" fill-rule="nonzero" stroke="#3B1159" stroke-width="0.2">
                    <g id="Group">
                        <path d="M35.4026454,1.74124811 L3.77988785,1.74124811 L2.18972992,0.17270077 C1.95648367,-0.0574518639 1.57818306,-0.0575837167 1.34477185,0.172406268 C1.11136065,0.402396253 1.11122692,0.775415549 1.34447317,1.00556819 L13.7569043,13.2441249 L4.46385886,22.4074336 L1.01234401,19.0041041 C0.777954682,18.7808837 0.405381102,18.7840761 0.174961245,19.0112791 C-0.0554586116,19.2384822 -0.0586961753,19.6058544 0.167684615,19.8369715 L2.54814268,22.1841969 L2.54814268,31.7810207 C2.54814268,32.1063248 2.81558744,32.3700358 3.14549727,32.3700358 L13.7228551,32.3700358 L15.8691501,34.4863673 C16.1959133,34.8125262 16.6407226,34.9972889 17.1056742,35 L17.1522678,35 C17.6233879,35.0011878 18.0752966,34.8159456 18.4067125,34.4857783 C18.5664249,34.3286111 18.6943442,34.1429092 18.7836432,33.9385832 C19.0525119,34.0892886 19.3566638,34.1680722 19.665936,34.1671211 C20.3827618,34.1733352 21.0336664,33.7556665 21.3182188,33.1068938 C21.5862679,33.2584633 21.890329,33.3371269 22.1993168,33.3348427 C22.6758103,33.3318833 23.1328084,33.1479231 23.4752662,32.8212214 C23.6205328,32.6780177 23.739749,32.5112534 23.8277054,32.3282158 C24.4775059,32.8661863 25.4200929,32.8836116 26.0898873,32.3700358 L35.4026454,32.3700358 C35.7325552,32.3700358 36,32.1063248 36,31.7810207 L36,2.33026326 C36,2.00495918 35.7325552,1.74124811 35.4026454,1.74124811 Z M21.6634897,2.91927841 L21.6634897,8.80942989 L16.884653,8.80942989 L16.884653,2.91927841 L21.6634897,2.91927841 Z M3.74285187,31.1920055 L3.74285187,23.3622272 L4.04152916,23.6567347 C4.27479605,23.8866756 4.65292168,23.8866756 4.88618856,23.6567347 L5.73084796,22.8238673 L5.88795222,22.9787783 C6.26225296,23.3490763 6.53022178,23.810662 6.66451319,24.3164317 L6.7696476,24.716373 C6.95778462,25.4251972 7.33384605,26.0718809 7.85922238,26.5900302 L12.5281459,31.1920055 L3.74285187,31.1920055 Z M24.9770157,31.5666192 C24.8227211,31.5633597 24.6752538,31.5032631 24.5636463,31.3981608 L23.4716821,30.3208521 L23.4716821,30.3208521 C23.2384358,30.0906995 22.8601352,30.0905677 22.626724,30.3205576 C22.3933128,30.5505476 22.3931791,30.9235669 22.6264253,31.1537196 C22.8596218,31.3837299 22.8596218,31.7565767 22.6264253,31.986587 C22.5132433,32.1003448 22.356634,32.161729 22.1951353,32.1556343 C22.0404501,32.1533921 21.892434,32.0931589 21.7811686,31.987176 L20.9365092,31.1543086 C20.7012443,30.9367716 20.3333335,30.9426624 20.1053556,31.1676166 C19.8773777,31.3925709 19.8716638,31.7553495 20.0924471,31.987176 L20.0924471,31.987176 C20.3244518,32.2169825 20.3244518,32.5884698 20.0924471,32.8182764 C19.9763262,32.9268546 19.8223815,32.987362 19.6623518,32.9873237 C19.505179,32.9966781 19.3523521,32.9343596 19.2477877,32.8182764 L18.4031283,31.987176 C18.2522445,31.8382933 18.0322695,31.7800919 17.8260659,31.8344956 C17.6198623,31.8888993 17.4587572,32.047643 17.4034375,32.2509293 C17.3481178,32.4542157 17.4069877,32.6711608 17.5578716,32.8200434 C17.791068,33.0500537 17.791068,33.4229005 17.5578716,33.6529108 C17.4466095,33.7687609 17.2893528,33.8305701 17.1277763,33.8219582 C16.9723962,33.821675 16.8234108,33.760923 16.7132122,33.6529108 L8.70866062,25.7565738 C8.33396932,25.3865697 8.06593617,24.9248733 7.93209964,24.4189203 L7.82636788,24.0189791 C7.63819631,23.3104714 7.26236616,22.6640342 6.73739045,22.1459109 L6.58028619,21.9909999 L12.9116475,15.7433162 L13.513781,16.3364545 C13.7516647,16.5706054 14.0516516,16.7339175 14.3793478,16.8076666 L17.3661208,17.483856 C19.4225905,17.9522249 21.2459396,19.1200948 22.5159147,20.7823408 L25.5683967,24.7793976 L25.5128427,24.834176 C25.2896661,25.055966 24.9856409,25.1802912 24.6687807,25.1793389 L24.6687807,25.1793389 C24.3517459,25.1797016 24.0476857,25.0552379 23.8241213,24.833587 L22.3307348,23.3610491 C22.0563794,23.0879343 21.6823897,22.9347404 21.2925325,22.9357802 L21.2925325,22.9357802 C20.6868763,22.9396029 20.1427294,23.3015201 19.9122656,23.8538085 C19.6818019,24.406097 19.8100611,25.040822 20.2376043,25.4638332 L25.3646988,30.5193502 C25.6036475,30.7382209 25.6400064,31.0982497 25.4495231,31.3592858 L25.4495231,31.3592858 C25.3294055,31.4919366 25.1573642,31.5674272 24.9770157,31.5666192 Z M34.8052908,31.1920055 L26.7517562,31.1920055 C26.8086254,30.6342144 26.6081516,30.0807674 26.2057741,29.6847158 L21.0786796,24.6291988 C21.0221754,24.5731469 20.9904021,24.4973629 20.9902711,24.4183313 C20.9923767,24.3316956 21.030111,24.2496264 21.0948081,24.1909715 C21.2018759,24.0854388 21.3754236,24.0854388 21.4824913,24.1909715 L22.9758778,25.6635094 C23.4229541,26.1068168 24.0311606,26.3555673 24.6651966,26.3544241 L24.6651966,26.3544241 C25.299058,26.3561569 25.9072293,26.1075449 26.353918,25.6640984 L26.7762477,25.2476647 C26.9869299,25.0401013 27.0103715,24.7112244 26.8312043,24.4766438 L23.4663059,20.0708105 C22.0269126,18.1875776 19.9605152,16.8647347 17.6301515,16.3346874 L14.6433785,15.6590871 C14.5336577,15.6340822 14.4332701,15.5791806 14.3536615,15.500642 L13.7515281,14.9069147 L15.0191146,13.6570246 C15.252311,13.4270142 15.252311,13.0541675 15.0191146,12.8241571 L4.97459704,2.91927841 L15.6899438,2.91927841 L15.6899438,9.39844504 C15.6899438,9.72374913 15.9573885,9.98746019 16.2872984,9.98746019 L22.2608443,9.98746019 C22.5907541,9.98746019 22.8581989,9.72374913 22.8581989,9.39844504 L22.8581989,2.91927841 L34.8052908,2.91927841 L34.8052908,31.1920055 Z" id="Shape"></path>
                        <path d="M27.6370357,26.4798844 L30.6238086,26.4798844 C30.9537185,26.4798844 31.2211632,26.2161733 31.2211632,25.8908692 C31.2211632,25.5655651 30.9537185,25.3018541 30.6238086,25.3018541 L27.6370357,25.3018541 C27.3071258,25.3018541 27.0396811,25.5655651 27.0396811,25.8908692 C27.0396811,26.2161733 27.3071258,26.4798844 27.6370357,26.4798844 Z" id="Path"></path>
                        <path d="M32.4158724,26.4798844 L33.013227,26.4798844 C33.3431369,26.4798844 33.6105816,26.2161733 33.6105816,25.8908692 C33.6105816,25.5655651 33.3431369,25.3018541 33.013227,25.3018541 L32.4158724,25.3018541 C32.0859626,25.3018541 31.8185178,25.5655651 31.8185178,25.8908692 C31.8185178,26.2161733 32.0859626,26.4798844 32.4158724,26.4798844 Z" id="Path"></path>
                        <path d="M27.6370357,24.1238238 L30.6238086,24.1238238 C30.9537185,24.1238238 31.2211632,23.8601127 31.2211632,23.5348086 C31.2211632,23.2095045 30.9537185,22.9457935 30.6238086,22.9457935 L27.6370357,22.9457935 C27.3071258,22.9457935 27.0396811,23.2095045 27.0396811,23.5348086 C27.0396811,23.8601127 27.3071258,24.1238238 27.6370357,24.1238238 Z" id="Path"></path>
                        <path d="M32.4158724,24.1238238 L33.013227,24.1238238 C33.3431369,24.1238238 33.6105816,23.8601127 33.6105816,23.5348086 C33.6105816,23.2095045 33.3431369,22.9457935 33.013227,22.9457935 L32.4158724,22.9457935 C32.0859626,22.9457935 31.8185178,23.2095045 31.8185178,23.5348086 C31.8185178,23.8601127 32.0859626,24.1238238 32.4158724,24.1238238 Z" id="Path"></path>
                        <path d="M30.6238086,27.6579147 L26.4423265,27.6579147 C26.1124166,27.6579147 25.8449719,27.9216257 25.8449719,28.2469298 C25.8449719,28.5722339 26.1124166,28.8359449 26.4423265,28.8359449 L30.6238086,28.8359449 C30.9537185,28.8359449 31.2211632,28.5722339 31.2211632,28.2469298 C31.2211632,27.9216257 30.9537185,27.6579147 30.6238086,27.6579147 Z" id="Path"></path>
                        <path d="M32.4158724,28.8359449 L33.013227,28.8359449 C33.3431369,28.8359449 33.6105816,28.5722339 33.6105816,28.2469298 C33.6105816,27.9216257 33.3431369,27.6579147 33.013227,27.6579147 L32.4158724,27.6579147 C32.0859626,27.6579147 31.8185178,27.9216257 31.8185178,28.2469298 C31.8185178,28.5722339 32.0859626,28.8359449 32.4158724,28.8359449 Z" id="Path"></path>
                    </g>
                </g>
            </g>
        </g>
    </g>
</svg>