<?xml version="1.0" encoding="UTF-8"?>
<svg width="43px" height="45px" viewBox="0 0 43 45" version="1.1" xmlns="http://www.w3.org/2000/svg" xmlns:xlink="http://www.w3.org/1999/xlink">
    <title>Group 34</title>
    <g id="Final" stroke="none" stroke-width="1" fill="none" fill-rule="evenodd">
        <g id="Group-34">
            <rect id="Rectangle-Copy-43" fill="#FFFFFF" x="0" y="0" width="43" height="45"></rect>
            <g id="noun_thumbs-up_1351290" transform="translate(7.000000, 5.000000)" fill="#3B1159" fill-rule="nonzero">
                <path d="M22.2356894,8.7535687 C22.2356894,9.24667993 22.6466561,9.64642556 23.1536092,9.64642556 L25.2097496,9.64642556 C25.7167027,9.64642556 26.1276694,9.24667993 26.1276694,8.7535687 C26.1276694,8.26045747 25.7167027,7.86071183 25.2097496,7.86071183 L23.1536092,7.86071183 C22.9101618,7.86071183 22.6766853,7.95478041 22.5045419,8.12222356 C22.3323986,8.2896667 22.2356894,8.51676834 22.2356894,8.7535687 L22.2356894,8.7535687 Z" id="Path"></path>
                <path d="M8.12909782,8.7535687 C8.12909782,9.24667993 8.54006452,9.64642556 9.04701763,9.64642556 L11.103158,9.64642556 C11.6101111,9.64642556 12.0210778,9.24667993 12.0210778,8.7535687 C12.0210778,8.26045747 11.6101111,7.86071183 11.103158,7.86071183 L9.04701763,7.86071183 C8.54006452,7.86071183 8.12909782,8.26045747 8.12909782,8.7535687 Z" id="Path"></path>
                <path d="M18.0463034,2.89285624 L18.0463034,0.892856864 C18.0463034,0.399745634 17.6353367,0 17.1283836,0 C16.6214305,0 16.2104638,0.399745634 16.2104638,0.892856864 L16.2104638,2.89285624 C16.2104638,3.38596747 16.6214305,3.78571311 17.1283836,3.78571311 C17.6353367,3.78571311 18.0463034,3.38596747 18.0463034,2.89285624 Z" id="Path"></path>
                <path d="M22.206316,2.56428491 L20.7376443,3.9928559 C20.3787215,4.34197865 20.3787215,4.90801846 20.7376443,5.2571412 C21.0965671,5.60626394 21.6784959,5.60626395 22.0374188,5.25714122 L23.5060904,3.82857023 C23.7382728,3.60272741 23.8289503,3.27355433 23.7439657,2.9650473 C23.658981,2.65654027 23.4112454,2.41556885 23.0940785,2.33290464 C22.7769115,2.25024043 22.4384983,2.33844209 22.206316,2.56428491 Z" id="Path"></path>
                <path d="M12.8692357,5.50357502 C13.2410095,5.50421672 13.5764718,5.28667179 13.7188335,4.95261147 C13.8611952,4.61855114 13.7823398,4.2339526 13.5191229,3.97857019 L12.0504512,2.5499992 C11.6915284,2.20087648 11.1095996,2.20087649 10.7506768,2.54999923 C10.391754,2.89912197 10.391754,3.46516177 10.7506768,3.81428452 L12.2193485,5.24285551 C12.3915974,5.41053664 12.625542,5.50438781 12.8692357,5.50357502 L12.8692357,5.50357502 Z" id="Path"></path>
                <path d="M1.83583962,15.7999951 C0.821933393,15.7999951 0,16.5994863 0,17.5857088 L0,33.2142754 C0,34.2004978 0.821933393,34.9999946 1.83583962,34.9999946 L7.15243115,34.9999946 C8.11820063,35.0022933 8.9206696,34.276374 8.98827076,33.3392753 L10.1264913,34.0035608 C11.2100321,34.6362815 12.4499235,34.9708118 13.7137219,34.9714177 L21.4719802,34.9714177 C22.4103665,34.9811768 23.3406018,34.8011825 24.2037095,34.4428464 C26.682093,33.3714182 27.071291,31.4892759 26.887707,30.2392763 C28.1912335,29.1744678 28.6684855,27.4289965 28.0810028,25.8749919 C28.695382,25.1519648 29.0212684,24.2377702 28.9989226,23.2999927 C28.9587884,22.565381 28.6969863,21.8585615 28.2462283,21.2678505 C28.8236723,19.9742723 28.4849345,18.4663928 27.4054138,17.5249945 C27.3295324,17.4559469 27.2499794,17.3904708 27.1667546,17.328566 C26.7491639,17.0265188 26.2674455,16.8190809 25.7568298,16.7214234 L25.7164413,16.7214234 C23.282118,16.2178521 21.6445491,16.1857092 19.2359275,16.1857092 C19.1441355,15.6464237 19.1478072,14.5142812 19.8747997,12.382139 C20.546717,10.4071396 20.4879701,8.77499726 19.6985591,7.52856908 C19.0394434,6.51970361 17.9541094,5.84729988 16.7355139,5.69256737 L16.6216919,5.69256737 C15.755719,5.67821517 14.9844196,6.22304953 14.7307771,7.02856924 C14.7177708,7.07067105 14.7079534,7.11364321 14.7014036,7.15714063 L14.4260277,9.08571145 C14.34308,9.66504252 14.1697402,10.2286713 13.9119926,10.7571395 L11.2353385,16.2249949 C10.8289911,17.1399348 9.99103309,17.8058485 8.98827076,18.0107087 L8.98827076,17.5857088 C8.98827076,16.5994863 8.16633737,15.7999951 7.15243115,15.7999951 L1.83583962,15.7999951 Z M1.83583962,33.2142754 L1.83583962,17.5857088 L7.15243115,17.5857088 L7.15243115,33.2142754 L1.83583962,33.2142754 Z M9.17919808,19.8071367 C10.8321101,19.5251436 12.2269324,18.4504996 12.8875941,16.9499947 L15.5422182,11.496425 C15.8797478,10.8030428 16.1063367,10.0635515 16.2141355,9.30356853 L16.4968548,7.49999766 C16.5100684,7.48751246 16.5265971,7.47885541 16.5445866,7.47499767 C17.1921373,7.57480338 17.7665612,7.93519703 18.1270804,8.4678545 C18.611742,9.23213998 18.611742,10.3928539 18.1270804,11.8214249 C17.4147746,13.9071385 17.1944738,15.5535666 17.4661781,16.7178519 C17.6386191,17.4573042 18.3169018,17.9803594 19.0964037,17.9749977 L19.0964037,17.9749977 C21.5233837,17.9749977 23.0214288,17.996423 25.3382584,18.4714228 L25.3749752,18.4714228 C25.6197206,18.5144985 25.8516646,18.6096211 26.0542358,18.7499942 L26.1717296,18.8464227 C27.1116795,19.6714224 26.5168674,20.728565 26.3920303,20.9249935 C26.1495678,21.2939653 26.217992,21.7795214 26.5535842,22.0714217 C26.9110087,22.4232809 27.1305401,22.8857345 27.174098,23.3785641 C27.1524356,24.0432707 26.8542993,24.6709507 26.3479702,25.1178493 C26.0655087,25.408319 26.0160088,25.846031 26.2268048,26.1892775 C26.2671932,26.2571347 27.2108148,27.8535627 25.3419301,29.1892766 C25.0207926,29.4243328 24.8905878,29.8330657 25.0188223,30.203562 C25.1179576,30.4892762 25.5071556,31.9535615 23.4914037,32.8142755 C22.8523641,33.0740588 22.1644156,33.2005918 21.4719802,33.1857039 L13.6990352,33.1857039 C12.7688219,33.1843384 11.8564234,32.9374715 11.0590978,32.4714184 L8.98827076,31.264276 L8.98827076,19.8357081 L9.17919808,19.8071367 Z" id="Shape"></path>
                <ellipse id="Oval" cx="4.49413538" cy="30.4357048" rx="1.11986217" ry="1.08928537"></ellipse>
            </g>
        </g>
    </g>
</svg>